<mxfile host="app.diagrams.net" modified="2021-09-16T07:04:09.945Z" agent="5.0 (Windows)" etag="IAHqVVdyLTcMVuHyszxZ" version="15.2.7" type="github">
  <diagram id="8MEcfWtopiUKQXSAYJBx" name="Page-1">
    <mxGraphModel dx="1730" dy="893" grid="1" gridSize="10" guides="1" tooltips="1" connect="1" arrows="1" fold="1" page="1" pageScale="1" pageWidth="827" pageHeight="1169" math="0" shadow="0">
      <root>
        <mxCell id="0" />
        <mxCell id="1" parent="0" />
        <mxCell id="bx-sGPu1fWeCTNXn2ktz-3" style="edgeStyle=none;orthogonalLoop=1;jettySize=auto;html=1;endArrow=none;" edge="1" parent="1" source="iB_32XxoJL4pG8xhKyJ5-8" target="bx-sGPu1fWeCTNXn2ktz-1">
          <mxGeometry relative="1" as="geometry" />
        </mxCell>
        <mxCell id="iB_32XxoJL4pG8xhKyJ5-8" value="Отказ от подписки" style="ellipse;whiteSpace=wrap;html=1;" parent="1" vertex="1">
          <mxGeometry x="230" y="110" width="150" height="50" as="geometry" />
        </mxCell>
        <mxCell id="bx-sGPu1fWeCTNXn2ktz-8" style="edgeStyle=none;orthogonalLoop=1;jettySize=auto;html=1;endArrow=none;" edge="1" parent="1" source="iB_32XxoJL4pG8xhKyJ5-9" target="bx-sGPu1fWeCTNXn2ktz-1">
          <mxGeometry relative="1" as="geometry" />
        </mxCell>
        <mxCell id="iB_32XxoJL4pG8xhKyJ5-9" value="Составление набора плейлистов" style="ellipse;whiteSpace=wrap;html=1;" parent="1" vertex="1">
          <mxGeometry x="240" y="260" width="130" height="50" as="geometry" />
        </mxCell>
        <mxCell id="bx-sGPu1fWeCTNXn2ktz-7" style="edgeStyle=none;orthogonalLoop=1;jettySize=auto;html=1;endArrow=none;" edge="1" parent="1" source="iB_32XxoJL4pG8xhKyJ5-10" target="bx-sGPu1fWeCTNXn2ktz-1">
          <mxGeometry relative="1" as="geometry" />
        </mxCell>
        <mxCell id="iB_32XxoJL4pG8xhKyJ5-10" value="Добавление в избранное" style="ellipse;whiteSpace=wrap;html=1;" parent="1" vertex="1">
          <mxGeometry x="390" y="210" width="130" height="50" as="geometry" />
        </mxCell>
        <mxCell id="bx-sGPu1fWeCTNXn2ktz-6" style="edgeStyle=none;orthogonalLoop=1;jettySize=auto;html=1;endArrow=none;" edge="1" parent="1" source="iB_32XxoJL4pG8xhKyJ5-11" target="bx-sGPu1fWeCTNXn2ktz-1">
          <mxGeometry relative="1" as="geometry" />
        </mxCell>
        <mxCell id="iB_32XxoJL4pG8xhKyJ5-11" value="Оставление &lt;br&gt;&lt;div&gt;отзывов&lt;/div&gt;" style="ellipse;whiteSpace=wrap;html=1;" parent="1" vertex="1">
          <mxGeometry x="390" y="150" width="130" height="50" as="geometry" />
        </mxCell>
        <mxCell id="iB_32XxoJL4pG8xhKyJ5-12" value="Include" style="endArrow=open;endSize=12;dashed=1;html=1;targetPerimeterSpacing=0;" parent="1" edge="1" target="iB_32XxoJL4pG8xhKyJ5-14" source="iB_32XxoJL4pG8xhKyJ5-10">
          <mxGeometry width="160" relative="1" as="geometry">
            <mxPoint x="530" y="230" as="sourcePoint" />
            <mxPoint x="640" y="200" as="targetPoint" />
            <Array as="points" />
          </mxGeometry>
        </mxCell>
        <mxCell id="iB_32XxoJL4pG8xhKyJ5-13" value="Include" style="endArrow=open;endSize=12;dashed=1;html=1;targetPerimeterSpacing=0;" parent="1" edge="1" target="iB_32XxoJL4pG8xhKyJ5-15" source="iB_32XxoJL4pG8xhKyJ5-10">
          <mxGeometry width="160" relative="1" as="geometry">
            <mxPoint x="530" y="245" as="sourcePoint" />
            <mxPoint x="640" y="285" as="targetPoint" />
            <Array as="points" />
          </mxGeometry>
        </mxCell>
        <mxCell id="iB_32XxoJL4pG8xhKyJ5-14" value="Добавление исполнителей" style="ellipse;whiteSpace=wrap;html=1;" parent="1" vertex="1">
          <mxGeometry x="640" y="170" width="130" height="50" as="geometry" />
        </mxCell>
        <mxCell id="iB_32XxoJL4pG8xhKyJ5-15" value="Добавление муз. произведений" style="ellipse;whiteSpace=wrap;html=1;" parent="1" vertex="1">
          <mxGeometry x="635" y="260" width="140" height="50" as="geometry" />
        </mxCell>
        <mxCell id="bx-sGPu1fWeCTNXn2ktz-12" style="edgeStyle=none;orthogonalLoop=1;jettySize=auto;html=1;endArrow=none;" edge="1" parent="1" source="iB_32XxoJL4pG8xhKyJ5-20" target="bx-sGPu1fWeCTNXn2ktz-4">
          <mxGeometry relative="1" as="geometry" />
        </mxCell>
        <mxCell id="iB_32XxoJL4pG8xhKyJ5-20" value="Заявка на загрузку своих композиций" style="ellipse;whiteSpace=wrap;html=1;" parent="1" vertex="1">
          <mxGeometry x="240" y="350" width="130" height="50" as="geometry" />
        </mxCell>
        <mxCell id="bx-sGPu1fWeCTNXn2ktz-13" style="edgeStyle=none;orthogonalLoop=1;jettySize=auto;html=1;endArrow=none;" edge="1" parent="1" source="iB_32XxoJL4pG8xhKyJ5-21" target="bx-sGPu1fWeCTNXn2ktz-4">
          <mxGeometry relative="1" as="geometry" />
        </mxCell>
        <mxCell id="iB_32XxoJL4pG8xhKyJ5-21" value="Просмотр статистики" style="ellipse;whiteSpace=wrap;html=1;" parent="1" vertex="1">
          <mxGeometry x="240" y="420" width="130" height="40" as="geometry" />
        </mxCell>
        <mxCell id="iB_32XxoJL4pG8xhKyJ5-22" value="Просмотр рейтинга композиций в чартах" style="ellipse;whiteSpace=wrap;html=1;" parent="1" vertex="1">
          <mxGeometry x="520" y="450" width="130" height="50" as="geometry" />
        </mxCell>
        <mxCell id="bx-sGPu1fWeCTNXn2ktz-17" style="edgeStyle=none;orthogonalLoop=1;jettySize=auto;html=1;endArrow=none;" edge="1" parent="1" source="iB_32XxoJL4pG8xhKyJ5-25" target="bx-sGPu1fWeCTNXn2ktz-5">
          <mxGeometry relative="1" as="geometry" />
        </mxCell>
        <mxCell id="iB_32XxoJL4pG8xhKyJ5-25" value="Составление чартов" style="ellipse;whiteSpace=wrap;html=1;" parent="1" vertex="1">
          <mxGeometry x="240" y="520" width="130" height="50" as="geometry" />
        </mxCell>
        <mxCell id="bx-sGPu1fWeCTNXn2ktz-18" style="edgeStyle=none;orthogonalLoop=1;jettySize=auto;html=1;endArrow=none;" edge="1" parent="1" source="iB_32XxoJL4pG8xhKyJ5-26" target="bx-sGPu1fWeCTNXn2ktz-5">
          <mxGeometry relative="1" as="geometry" />
        </mxCell>
        <mxCell id="iB_32XxoJL4pG8xhKyJ5-26" value="Согласие на заявки авторов" style="ellipse;whiteSpace=wrap;html=1;" parent="1" vertex="1">
          <mxGeometry x="520" y="530" width="130" height="50" as="geometry" />
        </mxCell>
        <mxCell id="bx-sGPu1fWeCTNXn2ktz-20" style="edgeStyle=none;orthogonalLoop=1;jettySize=auto;html=1;endArrow=none;" edge="1" parent="1" source="iB_32XxoJL4pG8xhKyJ5-29" target="bx-sGPu1fWeCTNXn2ktz-5">
          <mxGeometry relative="1" as="geometry" />
        </mxCell>
        <mxCell id="iB_32XxoJL4pG8xhKyJ5-29" value="Учёт пользователей" style="ellipse;whiteSpace=wrap;html=1;" parent="1" vertex="1">
          <mxGeometry x="240" y="620" width="130" height="50" as="geometry" />
        </mxCell>
        <mxCell id="bx-sGPu1fWeCTNXn2ktz-1" value="Пользователь" style="shape=umlActor;verticalLabelPosition=bottom;verticalAlign=top;html=1;outlineConnect=0;" vertex="1" parent="1">
          <mxGeometry x="60" y="160" width="30" height="60" as="geometry" />
        </mxCell>
        <mxCell id="bx-sGPu1fWeCTNXn2ktz-4" value="автор" style="shape=umlActor;verticalLabelPosition=bottom;verticalAlign=top;html=1;outlineConnect=0;" vertex="1" parent="1">
          <mxGeometry x="60" y="410" width="30" height="60" as="geometry" />
        </mxCell>
        <mxCell id="bx-sGPu1fWeCTNXn2ktz-5" value="администратор" style="shape=umlActor;verticalLabelPosition=bottom;verticalAlign=top;html=1;outlineConnect=0;" vertex="1" parent="1">
          <mxGeometry x="60" y="570" width="30" height="60" as="geometry" />
        </mxCell>
        <mxCell id="bx-sGPu1fWeCTNXn2ktz-10" style="edgeStyle=none;orthogonalLoop=1;jettySize=auto;html=1;endArrow=none;" edge="1" parent="1" source="bx-sGPu1fWeCTNXn2ktz-9" target="bx-sGPu1fWeCTNXn2ktz-1">
          <mxGeometry relative="1" as="geometry" />
        </mxCell>
        <mxCell id="bx-sGPu1fWeCTNXn2ktz-9" value="Оформление подписки" style="ellipse;whiteSpace=wrap;html=1;" vertex="1" parent="1">
          <mxGeometry x="230" y="50" width="150" height="50" as="geometry" />
        </mxCell>
        <mxCell id="bx-sGPu1fWeCTNXn2ktz-11" value="Просмотр прослушиваний" style="ellipse;whiteSpace=wrap;html=1;" vertex="1" parent="1">
          <mxGeometry x="520" y="370" width="130" height="40" as="geometry" />
        </mxCell>
        <mxCell id="bx-sGPu1fWeCTNXn2ktz-19" style="edgeStyle=none;orthogonalLoop=1;jettySize=auto;html=1;endArrow=none;" edge="1" parent="1" source="bx-sGPu1fWeCTNXn2ktz-16" target="bx-sGPu1fWeCTNXn2ktz-5">
          <mxGeometry relative="1" as="geometry" />
        </mxCell>
        <mxCell id="bx-sGPu1fWeCTNXn2ktz-16" value="Отказ от заявки авторов" style="ellipse;whiteSpace=wrap;html=1;" vertex="1" parent="1">
          <mxGeometry x="520" y="590" width="130" height="50" as="geometry" />
        </mxCell>
        <mxCell id="bx-sGPu1fWeCTNXn2ktz-21" value="&amp;lt;&amp;lt;extend&amp;gt;&amp;gt;" style="html=1;verticalAlign=bottom;labelBackgroundColor=none;endArrow=open;endFill=0;dashed=1;" edge="1" parent="1" source="iB_32XxoJL4pG8xhKyJ5-21" target="bx-sGPu1fWeCTNXn2ktz-11">
          <mxGeometry width="160" relative="1" as="geometry">
            <mxPoint x="520" y="430" as="sourcePoint" />
            <mxPoint x="680" y="430" as="targetPoint" />
          </mxGeometry>
        </mxCell>
        <mxCell id="bx-sGPu1fWeCTNXn2ktz-22" value="&amp;lt;&amp;lt;extend&amp;gt;&amp;gt;" style="html=1;verticalAlign=bottom;labelBackgroundColor=none;endArrow=open;endFill=0;dashed=1;" edge="1" parent="1" source="iB_32XxoJL4pG8xhKyJ5-21" target="iB_32XxoJL4pG8xhKyJ5-22">
          <mxGeometry width="160" relative="1" as="geometry">
            <mxPoint x="379.7838252024301" y="448.37021823390114" as="sourcePoint" />
            <mxPoint x="640" y="460" as="targetPoint" />
          </mxGeometry>
        </mxCell>
      </root>
    </mxGraphModel>
  </diagram>
</mxfile>
